<svg width="20" height="21" viewBox="0 0 20 21" fill="none" xmlns="http://www.w3.org/2000/svg">
<g clip-path="url(#clip0_197_389)">
<path d="M17.2817 11.9779C16.9325 12.1987 16.5217 12.2262 16.21 12.0504C15.8133 11.8254 15.595 11.302 15.595 10.572V8.39037C15.595 7.33704 15.1783 6.58704 14.4817 6.38454C13.3017 6.04037 12.4133 7.48454 12.08 8.02787L9.99833 11.4029V7.27787C9.97499 6.32787 9.66666 5.76037 9.08166 5.58871C8.69333 5.4762 8.11416 5.5212 7.55083 6.38287L2.88666 13.872C2.26306 12.6864 1.93757 11.3667 1.93832 10.027C1.93832 5.51537 5.55416 1.84537 9.99833 1.84537C14.4417 1.84537 18.0567 5.51537 18.0567 10.027C18.06 10.042 18.0583 10.0554 18.0592 10.0712C18.1008 10.9454 17.8175 11.6404 17.2817 11.9795V11.9779ZM19.8483 10.0279L19.8475 9.98204C19.8225 4.48787 15.4142 0.0270386 9.99749 0.0270386C4.56666 0.0270386 0.147491 4.51287 0.147491 10.027C0.147491 15.5404 4.56666 20.027 9.99749 20.027C12.49 20.027 14.8692 19.0795 16.695 17.3604C17.0575 17.0187 17.0783 16.4437 16.7425 16.0762C16.6633 15.9888 16.5674 15.9181 16.4605 15.8682C16.3536 15.8183 16.2378 15.7902 16.1199 15.7856C16.002 15.7811 15.8844 15.8 15.7739 15.8415C15.6635 15.883 15.5624 15.946 15.4767 16.027C13.9968 17.4282 12.0363 18.209 9.99833 18.2087C7.61833 18.2087 5.47749 17.1562 4.00082 15.4854L8.20749 8.7312V11.8454C8.20749 13.3404 8.78749 13.8237 9.27416 13.9654C9.76083 14.107 10.5042 14.0104 11.285 12.742C12.1167 11.397 12.9725 9.99454 13.8042 8.67537V10.572C13.8042 11.9704 14.3642 13.0887 15.34 13.6387C16.22 14.1362 17.3267 14.0912 18.2275 13.522C19.3208 12.832 19.9092 11.5604 19.8475 10.0279H19.8483Z" fill="white"/>
</g>
<defs>
<clipPath id="clip0_197_389">
<rect width="20" height="20" fill="white" transform="translate(0 0.0270386)"/>
</clipPath>
</defs>
</svg>
