<svg width="20" height="21" viewBox="0 0 20 21" fill="none" xmlns="http://www.w3.org/2000/svg">
<path d="M14.0167 17.3337L3.12749 3.33371C3.07009 3.2598 3.03459 3.17127 3.02502 3.07818C3.01545 2.9851 3.03219 2.89119 3.07335 2.80715C3.1145 2.72311 3.17841 2.6523 3.25781 2.60278C3.33721 2.55327 3.42891 2.52702 3.52249 2.52704H5.58915C5.66523 2.52715 5.74029 2.54463 5.80859 2.57813C5.8769 2.61163 5.93666 2.66028 5.98332 2.72037L16.8725 16.7204C16.9299 16.7943 16.9654 16.8828 16.975 16.9759C16.9845 17.069 16.9678 17.1629 16.9266 17.2469C16.8855 17.331 16.8216 17.4018 16.7422 17.4513C16.6628 17.5008 16.5711 17.5271 16.4775 17.527H14.4108C14.3347 17.5269 14.2597 17.5095 14.1914 17.4759C14.1231 17.4424 14.0633 17.3938 14.0167 17.3337Z" stroke="white" stroke-width="1.5"/>
<path d="M16.6666 2.52704L3.33331 17.527" stroke="white" stroke-width="1.5" stroke-linecap="round"/>
</svg>
